<mxfile host="app.diagrams.net" modified="2023-07-07T13:53:28.718Z" agent="Mozilla/5.0 (Windows NT 10.0; Win64; x64) AppleWebKit/537.36 (KHTML, like Gecko) Chrome/113.0.0.0 Safari/537.36 OPR/99.0.0.0" etag="mdDu0SleoNGQ_57XboUg" version="21.2.7" type="device">
  <diagram name="Page-1" id="5BbFFjfSctsz7aHCjBVA">
    <mxGraphModel dx="2072" dy="1197" grid="1" gridSize="10" guides="1" tooltips="1" connect="1" arrows="1" fold="1" page="1" pageScale="1" pageWidth="827" pageHeight="1169" math="0" shadow="0">
      <root>
        <mxCell id="0" />
        <mxCell id="1" parent="0" />
        <mxCell id="XMftB5UkHZVQQbz1UIFX-33" style="edgeStyle=orthogonalEdgeStyle;rounded=0;orthogonalLoop=1;jettySize=auto;html=1;" edge="1" parent="1" source="XMftB5UkHZVQQbz1UIFX-1" target="XMftB5UkHZVQQbz1UIFX-7">
          <mxGeometry relative="1" as="geometry" />
        </mxCell>
        <mxCell id="XMftB5UkHZVQQbz1UIFX-1" value="Accelerator" style="swimlane;fontStyle=0;childLayout=stackLayout;horizontal=1;startSize=26;horizontalStack=0;resizeParent=1;resizeParentMax=0;resizeLast=0;collapsible=1;marginBottom=0;align=center;fontSize=14;" vertex="1" parent="1">
          <mxGeometry y="270" width="160" height="56" as="geometry" />
        </mxCell>
        <mxCell id="XMftB5UkHZVQQbz1UIFX-2" value="Liquid Hydrogen" style="text;strokeColor=none;fillColor=none;spacingLeft=4;spacingRight=4;overflow=hidden;rotatable=0;points=[[0,0.5],[1,0.5]];portConstraint=eastwest;fontSize=12;whiteSpace=wrap;html=1;" vertex="1" parent="XMftB5UkHZVQQbz1UIFX-1">
          <mxGeometry y="26" width="160" height="30" as="geometry" />
        </mxCell>
        <mxCell id="XMftB5UkHZVQQbz1UIFX-29" style="edgeStyle=orthogonalEdgeStyle;rounded=0;orthogonalLoop=1;jettySize=auto;html=1;entryX=0;entryY=0.5;entryDx=0;entryDy=0;" edge="1" parent="1" source="XMftB5UkHZVQQbz1UIFX-7" target="XMftB5UkHZVQQbz1UIFX-19">
          <mxGeometry relative="1" as="geometry" />
        </mxCell>
        <mxCell id="XMftB5UkHZVQQbz1UIFX-7" value="Collision Chamber" style="rounded=0;whiteSpace=wrap;html=1;" vertex="1" parent="1">
          <mxGeometry x="260" y="268" width="120" height="60" as="geometry" />
        </mxCell>
        <mxCell id="XMftB5UkHZVQQbz1UIFX-10" value="CC - Input" style="swimlane;fontStyle=0;childLayout=stackLayout;horizontal=1;startSize=30;horizontalStack=0;resizeParent=1;resizeParentMax=0;resizeLast=0;collapsible=1;marginBottom=0;whiteSpace=wrap;html=1;" vertex="1" parent="1">
          <mxGeometry x="670" y="70" width="120" height="90" as="geometry" />
        </mxCell>
        <mxCell id="XMftB5UkHZVQQbz1UIFX-11" value="Proton Fluid" style="text;strokeColor=none;fillColor=none;align=left;verticalAlign=middle;spacingLeft=4;spacingRight=4;overflow=hidden;points=[[0,0.5],[1,0.5]];portConstraint=eastwest;rotatable=0;whiteSpace=wrap;html=1;" vertex="1" parent="XMftB5UkHZVQQbz1UIFX-10">
          <mxGeometry y="30" width="120" height="30" as="geometry" />
        </mxCell>
        <mxCell id="XMftB5UkHZVQQbz1UIFX-12" value="Liquid Hydrogen" style="text;strokeColor=none;fillColor=none;align=left;verticalAlign=middle;spacingLeft=4;spacingRight=4;overflow=hidden;points=[[0,0.5],[1,0.5]];portConstraint=eastwest;rotatable=0;whiteSpace=wrap;html=1;" vertex="1" parent="XMftB5UkHZVQQbz1UIFX-10">
          <mxGeometry y="60" width="120" height="30" as="geometry" />
        </mxCell>
        <mxCell id="XMftB5UkHZVQQbz1UIFX-38" style="edgeStyle=orthogonalEdgeStyle;rounded=0;orthogonalLoop=1;jettySize=auto;html=1;entryX=0;entryY=0.5;entryDx=0;entryDy=0;" edge="1" parent="1" source="XMftB5UkHZVQQbz1UIFX-15" target="XMftB5UkHZVQQbz1UIFX-35">
          <mxGeometry relative="1" as="geometry" />
        </mxCell>
        <mxCell id="XMftB5UkHZVQQbz1UIFX-15" value="CC - Input" style="swimlane;fontStyle=0;childLayout=stackLayout;horizontal=1;startSize=30;horizontalStack=0;resizeParent=1;resizeParentMax=0;resizeLast=0;collapsible=1;marginBottom=0;whiteSpace=wrap;html=1;" vertex="1" parent="1">
          <mxGeometry x="670" y="440" width="120" height="90" as="geometry" />
        </mxCell>
        <mxCell id="XMftB5UkHZVQQbz1UIFX-16" value="Proton Fluid" style="text;strokeColor=none;fillColor=none;align=left;verticalAlign=middle;spacingLeft=4;spacingRight=4;overflow=hidden;points=[[0,0.5],[1,0.5]];portConstraint=eastwest;rotatable=0;whiteSpace=wrap;html=1;" vertex="1" parent="XMftB5UkHZVQQbz1UIFX-15">
          <mxGeometry y="30" width="120" height="30" as="geometry" />
        </mxCell>
        <mxCell id="XMftB5UkHZVQQbz1UIFX-17" value="Molten Lead" style="text;strokeColor=none;fillColor=none;align=left;verticalAlign=middle;spacingLeft=4;spacingRight=4;overflow=hidden;points=[[0,0.5],[1,0.5]];portConstraint=eastwest;rotatable=0;whiteSpace=wrap;html=1;" vertex="1" parent="XMftB5UkHZVQQbz1UIFX-15">
          <mxGeometry y="60" width="120" height="30" as="geometry" />
        </mxCell>
        <mxCell id="XMftB5UkHZVQQbz1UIFX-30" style="edgeStyle=orthogonalEdgeStyle;rounded=0;orthogonalLoop=1;jettySize=auto;html=1;entryX=0;entryY=0.5;entryDx=0;entryDy=0;" edge="1" parent="1" source="XMftB5UkHZVQQbz1UIFX-19" target="XMftB5UkHZVQQbz1UIFX-11">
          <mxGeometry relative="1" as="geometry" />
        </mxCell>
        <mxCell id="XMftB5UkHZVQQbz1UIFX-31" style="edgeStyle=orthogonalEdgeStyle;rounded=0;orthogonalLoop=1;jettySize=auto;html=1;entryX=0;entryY=0.5;entryDx=0;entryDy=0;" edge="1" parent="1" source="XMftB5UkHZVQQbz1UIFX-19" target="XMftB5UkHZVQQbz1UIFX-16">
          <mxGeometry relative="1" as="geometry" />
        </mxCell>
        <mxCell id="XMftB5UkHZVQQbz1UIFX-19" value="Proton Fluid" style="whiteSpace=wrap;html=1;rounded=0;" vertex="1" parent="1">
          <mxGeometry x="480" y="268" width="120" height="60" as="geometry" />
        </mxCell>
        <mxCell id="XMftB5UkHZVQQbz1UIFX-46" style="edgeStyle=orthogonalEdgeStyle;rounded=0;orthogonalLoop=1;jettySize=auto;html=1;entryX=0;entryY=0.25;entryDx=0;entryDy=0;" edge="1" parent="1" source="XMftB5UkHZVQQbz1UIFX-24" target="XMftB5UkHZVQQbz1UIFX-39">
          <mxGeometry relative="1" as="geometry">
            <Array as="points">
              <mxPoint x="960" y="276" />
            </Array>
          </mxGeometry>
        </mxCell>
        <mxCell id="XMftB5UkHZVQQbz1UIFX-24" value="CC - Output" style="swimlane;fontStyle=0;childLayout=stackLayout;horizontal=1;startSize=30;horizontalStack=0;resizeParent=1;resizeParentMax=0;resizeLast=0;collapsible=1;marginBottom=0;whiteSpace=wrap;html=1;" vertex="1" parent="1">
          <mxGeometry x="890" y="70" width="140" height="120" as="geometry" />
        </mxCell>
        <mxCell id="XMftB5UkHZVQQbz1UIFX-25" value="Positron Fluid" style="text;strokeColor=none;fillColor=none;align=left;verticalAlign=middle;spacingLeft=4;spacingRight=4;overflow=hidden;points=[[0,0.5],[1,0.5]];portConstraint=eastwest;rotatable=0;whiteSpace=wrap;html=1;" vertex="1" parent="XMftB5UkHZVQQbz1UIFX-24">
          <mxGeometry y="30" width="140" height="30" as="geometry" />
        </mxCell>
        <mxCell id="XMftB5UkHZVQQbz1UIFX-26" value="Electron Neutrino Fluid" style="text;strokeColor=none;fillColor=none;align=left;verticalAlign=middle;spacingLeft=4;spacingRight=4;overflow=hidden;points=[[0,0.5],[1,0.5]];portConstraint=eastwest;rotatable=0;whiteSpace=wrap;html=1;" vertex="1" parent="XMftB5UkHZVQQbz1UIFX-24">
          <mxGeometry y="60" width="140" height="30" as="geometry" />
        </mxCell>
        <mxCell id="XMftB5UkHZVQQbz1UIFX-27" value="Liquid Deuterium" style="text;strokeColor=none;fillColor=none;align=left;verticalAlign=middle;spacingLeft=4;spacingRight=4;overflow=hidden;points=[[0,0.5],[1,0.5]];portConstraint=eastwest;rotatable=0;whiteSpace=wrap;html=1;" vertex="1" parent="XMftB5UkHZVQQbz1UIFX-24">
          <mxGeometry y="90" width="140" height="30" as="geometry" />
        </mxCell>
        <mxCell id="XMftB5UkHZVQQbz1UIFX-32" style="edgeStyle=orthogonalEdgeStyle;rounded=0;orthogonalLoop=1;jettySize=auto;html=1;entryX=0;entryY=0.5;entryDx=0;entryDy=0;" edge="1" parent="1" source="XMftB5UkHZVQQbz1UIFX-11" target="XMftB5UkHZVQQbz1UIFX-25">
          <mxGeometry relative="1" as="geometry" />
        </mxCell>
        <mxCell id="XMftB5UkHZVQQbz1UIFX-45" style="edgeStyle=orthogonalEdgeStyle;rounded=0;orthogonalLoop=1;jettySize=auto;html=1;entryX=0;entryY=0.233;entryDx=0;entryDy=0;entryPerimeter=0;" edge="1" parent="1" source="XMftB5UkHZVQQbz1UIFX-34" target="XMftB5UkHZVQQbz1UIFX-41">
          <mxGeometry relative="1" as="geometry" />
        </mxCell>
        <mxCell id="XMftB5UkHZVQQbz1UIFX-34" value="CC - Output" style="swimlane;fontStyle=0;childLayout=stackLayout;horizontal=1;startSize=30;horizontalStack=0;resizeParent=1;resizeParentMax=0;resizeLast=0;collapsible=1;marginBottom=0;whiteSpace=wrap;html=1;" vertex="1" parent="1">
          <mxGeometry x="890" y="440" width="140" height="120" as="geometry" />
        </mxCell>
        <mxCell id="XMftB5UkHZVQQbz1UIFX-35" value="Proton Fluid" style="text;strokeColor=none;fillColor=none;align=left;verticalAlign=middle;spacingLeft=4;spacingRight=4;overflow=hidden;points=[[0,0.5],[1,0.5]];portConstraint=eastwest;rotatable=0;whiteSpace=wrap;html=1;" vertex="1" parent="XMftB5UkHZVQQbz1UIFX-34">
          <mxGeometry y="30" width="140" height="30" as="geometry" />
        </mxCell>
        <mxCell id="XMftB5UkHZVQQbz1UIFX-36" value="Anti-Proton Fluid" style="text;strokeColor=none;fillColor=none;align=left;verticalAlign=middle;spacingLeft=4;spacingRight=4;overflow=hidden;points=[[0,0.5],[1,0.5]];portConstraint=eastwest;rotatable=0;whiteSpace=wrap;html=1;" vertex="1" parent="XMftB5UkHZVQQbz1UIFX-34">
          <mxGeometry y="60" width="140" height="30" as="geometry" />
        </mxCell>
        <mxCell id="XMftB5UkHZVQQbz1UIFX-37" value="Molten Lead" style="text;strokeColor=none;fillColor=none;align=left;verticalAlign=middle;spacingLeft=4;spacingRight=4;overflow=hidden;points=[[0,0.5],[1,0.5]];portConstraint=eastwest;rotatable=0;whiteSpace=wrap;html=1;" vertex="1" parent="XMftB5UkHZVQQbz1UIFX-34">
          <mxGeometry y="90" width="140" height="30" as="geometry" />
        </mxCell>
        <mxCell id="XMftB5UkHZVQQbz1UIFX-51" style="edgeStyle=orthogonalEdgeStyle;rounded=0;orthogonalLoop=1;jettySize=auto;html=1;entryX=0;entryY=0.5;entryDx=0;entryDy=0;" edge="1" parent="1" source="XMftB5UkHZVQQbz1UIFX-39" target="XMftB5UkHZVQQbz1UIFX-47">
          <mxGeometry relative="1" as="geometry" />
        </mxCell>
        <mxCell id="XMftB5UkHZVQQbz1UIFX-39" value="CC - Input" style="swimlane;fontStyle=0;childLayout=stackLayout;horizontal=1;startSize=30;horizontalStack=0;resizeParent=1;resizeParentMax=0;resizeLast=0;collapsible=1;marginBottom=0;whiteSpace=wrap;html=1;" vertex="1" parent="1">
          <mxGeometry x="1140" y="253" width="140" height="90" as="geometry" />
        </mxCell>
        <mxCell id="XMftB5UkHZVQQbz1UIFX-40" value="Positron Fluid" style="text;strokeColor=none;fillColor=none;align=left;verticalAlign=middle;spacingLeft=4;spacingRight=4;overflow=hidden;points=[[0,0.5],[1,0.5]];portConstraint=eastwest;rotatable=0;whiteSpace=wrap;html=1;" vertex="1" parent="XMftB5UkHZVQQbz1UIFX-39">
          <mxGeometry y="30" width="140" height="30" as="geometry" />
        </mxCell>
        <mxCell id="XMftB5UkHZVQQbz1UIFX-41" value="Anti-Proton Fluid" style="text;strokeColor=none;fillColor=none;align=left;verticalAlign=middle;spacingLeft=4;spacingRight=4;overflow=hidden;points=[[0,0.5],[1,0.5]];portConstraint=eastwest;rotatable=0;whiteSpace=wrap;html=1;" vertex="1" parent="XMftB5UkHZVQQbz1UIFX-39">
          <mxGeometry y="60" width="140" height="30" as="geometry" />
        </mxCell>
        <mxCell id="XMftB5UkHZVQQbz1UIFX-56" style="edgeStyle=orthogonalEdgeStyle;rounded=0;orthogonalLoop=1;jettySize=auto;html=1;" edge="1" parent="1" source="XMftB5UkHZVQQbz1UIFX-47" target="XMftB5UkHZVQQbz1UIFX-52">
          <mxGeometry relative="1" as="geometry" />
        </mxCell>
        <mxCell id="XMftB5UkHZVQQbz1UIFX-47" value="CC - Output" style="swimlane;fontStyle=0;childLayout=stackLayout;horizontal=1;startSize=30;horizontalStack=0;resizeParent=1;resizeParentMax=0;resizeLast=0;collapsible=1;marginBottom=0;whiteSpace=wrap;html=1;" vertex="1" parent="1">
          <mxGeometry x="1350" y="268" width="140" height="60" as="geometry" />
        </mxCell>
        <mxCell id="XMftB5UkHZVQQbz1UIFX-48" value="Anti-Hydrogen Fluid" style="text;strokeColor=none;fillColor=none;align=left;verticalAlign=middle;spacingLeft=4;spacingRight=4;overflow=hidden;points=[[0,0.5],[1,0.5]];portConstraint=eastwest;rotatable=0;whiteSpace=wrap;html=1;" vertex="1" parent="XMftB5UkHZVQQbz1UIFX-47">
          <mxGeometry y="30" width="140" height="30" as="geometry" />
        </mxCell>
        <mxCell id="XMftB5UkHZVQQbz1UIFX-61" style="edgeStyle=orthogonalEdgeStyle;rounded=0;orthogonalLoop=1;jettySize=auto;html=1;" edge="1" parent="1" source="XMftB5UkHZVQQbz1UIFX-52" target="XMftB5UkHZVQQbz1UIFX-57">
          <mxGeometry relative="1" as="geometry" />
        </mxCell>
        <mxCell id="XMftB5UkHZVQQbz1UIFX-52" value="Rotary Condensentrator" style="swimlane;fontStyle=0;childLayout=stackLayout;horizontal=1;startSize=30;horizontalStack=0;resizeParent=1;resizeParentMax=0;resizeLast=0;collapsible=1;marginBottom=0;whiteSpace=wrap;html=1;" vertex="1" parent="1">
          <mxGeometry x="1560" y="268" width="140" height="60" as="geometry" />
        </mxCell>
        <mxCell id="XMftB5UkHZVQQbz1UIFX-53" value="Anti-Hydrogen Gas" style="text;strokeColor=none;fillColor=none;align=left;verticalAlign=middle;spacingLeft=4;spacingRight=4;overflow=hidden;points=[[0,0.5],[1,0.5]];portConstraint=eastwest;rotatable=0;whiteSpace=wrap;html=1;" vertex="1" parent="XMftB5UkHZVQQbz1UIFX-52">
          <mxGeometry y="30" width="140" height="30" as="geometry" />
        </mxCell>
        <mxCell id="XMftB5UkHZVQQbz1UIFX-57" value="Chemical Crystallizer" style="swimlane;fontStyle=0;childLayout=stackLayout;horizontal=1;startSize=30;horizontalStack=0;resizeParent=1;resizeParentMax=0;resizeLast=0;collapsible=1;marginBottom=0;whiteSpace=wrap;html=1;" vertex="1" parent="1">
          <mxGeometry x="1760" y="268" width="140" height="60" as="geometry" />
        </mxCell>
        <mxCell id="XMftB5UkHZVQQbz1UIFX-58" value="Antimatter Pellet" style="text;strokeColor=none;fillColor=none;align=left;verticalAlign=middle;spacingLeft=4;spacingRight=4;overflow=hidden;points=[[0,0.5],[1,0.5]];portConstraint=eastwest;rotatable=0;whiteSpace=wrap;html=1;" vertex="1" parent="XMftB5UkHZVQQbz1UIFX-57">
          <mxGeometry y="30" width="140" height="30" as="geometry" />
        </mxCell>
      </root>
    </mxGraphModel>
  </diagram>
</mxfile>
